<?xml version="1.0" encoding="UTF-8"?>
<svg version="1.1" xmlns="http://www.w3.org/2000/svg" width="512" height="512">
<path d="M0 0 C1.56441495 -0.00807831 1.56441495 -0.00807831 3.16043425 -0.01631981 C6.62469809 -0.03052752 10.08857593 -0.02351339 13.55285645 -0.01637268 C16.04891769 -0.02207993 18.54497633 -0.02904556 21.04103088 -0.03717041 C27.09856631 -0.05321962 33.15595237 -0.05521088 39.21349442 -0.04995751 C44.13973103 -0.0459042 49.06593707 -0.04737309 53.99217224 -0.05270576 C54.69522302 -0.05345419 55.39827379 -0.05420261 56.12262914 -0.05497371 C57.55118422 -0.05650529 58.97973931 -0.05804364 60.40829438 -0.05958868 C73.78125301 -0.07329196 87.15415301 -0.06789094 100.52711028 -0.05640347 C112.74400626 -0.04646937 124.96075082 -0.05941862 137.17762345 -0.08333766 C149.74490845 -0.10775604 162.31212301 -0.11733006 174.87943125 -0.11068493 C181.92588615 -0.1071993 188.97222462 -0.10938148 196.0186615 -0.12693596 C202.64422171 -0.14323839 209.26954028 -0.13843386 215.89510918 -0.11963081 C218.32223392 -0.11594903 220.74938013 -0.11904134 223.17648506 -0.1295166 C226.49827738 -0.1427555 229.8191171 -0.13115233 233.14086914 -0.11352539 C234.09351638 -0.1231304 235.04616363 -0.1327354 236.02767897 -0.14263147 C247.59019001 -0.01701725 257.93670414 4.50497418 266.26574707 12.4931488 C273.75424893 20.5204912 278.31478385 29.23812219 278.32770348 40.38904095 C278.33120955 41.07308305 278.33471563 41.75712515 278.33832794 42.46189579 C278.34762813 44.75288711 278.34272226 47.04362345 278.33786011 49.33462524 C278.34159708 50.99426061 278.34619878 52.65389421 278.35159075 54.31352502 C278.3638306 58.8735866 278.36355912 63.43357487 278.361202 67.99364913 C278.36079408 72.91201193 278.3718307 77.83035116 278.38131714 82.748703 C278.39793397 92.38498399 278.40342701 102.02124051 278.40454189 111.65753462 C278.40549213 119.49101613 278.4096012 127.32448957 278.41594315 135.15796852 C278.43355811 157.36782538 278.44278172 179.57766291 278.4412822 201.78752681 C278.44120229 202.98500365 278.44112237 204.18248049 278.44104004 205.41624451 C278.44095828 206.61518384 278.44087652 207.81412317 278.44079228 209.04939399 C278.4399795 228.47675991 278.45911433 247.90404828 278.48731677 267.33139177 C278.51604698 287.27974928 278.52985696 307.22806897 278.52812922 327.17644769 C278.52746532 338.37569313 278.53295739 349.57485729 278.55448532 360.77408409 C278.57269898 370.31031546 278.57704296 379.84642871 278.56346647 389.38266995 C278.55693755 394.24682213 278.55681694 399.1107477 278.57417297 403.97487831 C278.58991215 408.43178835 278.58703141 412.88829228 278.56960471 417.34519247 C278.56653666 418.95354456 278.57015985 420.56192702 278.58132486 422.17024329 C278.67035605 435.91025711 276.24594648 446.8033297 267.07043457 457.38768005 C258.48287017 465.45010562 248.38599663 469.14592826 237.38391113 472.7731781 C236.11813095 473.19527473 234.85252591 473.61789692 233.58708191 474.04100037 C230.17389599 475.18052449 226.75829206 476.31262974 223.34215641 477.44327521 C219.75921368 478.63045748 216.17847961 479.82426576 212.59747314 481.01727295 C206.59026772 483.01753081 200.58160467 485.01335432 194.57189941 487.00608826 C186.8604706 489.56310748 179.15135765 492.12703442 171.44299698 494.69328594 C164.80593012 496.90287418 158.16797309 499.10978351 151.52978802 501.31600976 C150.10696508 501.78893521 148.68417272 502.26195269 147.26141071 502.73506141 C142.58813623 504.28905484 137.91398579 505.8403817 133.23937988 507.3903656 C132.06008408 507.7825679 130.88078827 508.1747702 129.66575623 508.57885742 C128.58639297 508.93626007 127.50702972 509.29366272 126.3949585 509.66189575 C125.45774586 509.97287547 124.52053322 510.28385519 123.5549202 510.60425854 C113.05781015 513.91426435 99.62814484 514.20406399 89.48840332 509.70799255 C78.17484039 503.53031199 69.48410669 495.03571652 65.47253418 482.52268982 C63.71733175 475.47701403 63.84558161 468.54915748 63.94543457 461.32518005 C63.95445801 460.07801208 63.96348145 458.83084412 63.97277832 457.54588318 C63.99617248 454.49294501 64.02895283 451.440417 64.07043457 448.38768005 C63.15969681 448.3965625 62.24895905 448.40544495 61.31062317 448.41459656 C52.67634826 448.49515215 44.04220178 448.55585106 35.40763569 448.59492874 C30.96979391 448.61569524 26.53226581 448.64380956 22.09460449 448.68943787 C17.80220193 448.73329026 13.51009874 448.75689912 9.21748924 448.76718903 C7.58981815 448.77451045 5.96216115 448.78880483 4.33461952 448.81060028 C-13.85562378 449.04423797 -30.15412323 444.55754213 -43.69567871 431.76829529 C-60.08702408 415.56994918 -64.2451578 397.30919453 -64.3853302 374.9949646 C-64.38749247 372.58151633 -64.38417378 370.16805746 -64.37561035 367.75462341 C-64.3670441 364.06599603 -64.39603246 360.37889182 -64.4276123 356.69041443 C-64.42922337 354.32257635 -64.4286486 351.95473555 -64.42565918 349.5868988 C-64.43689316 348.49608505 -64.44812714 347.4052713 -64.45970154 346.28140259 C-64.39225839 338.838582 -63.447115 332.1044415 -58.1502533 326.50759888 C-51.83809967 320.79437972 -46.92297304 319.8762952 -38.41784668 320.0087738 C-32.06443521 320.69889801 -28.26432137 323.72720454 -24.05456543 328.32518005 C-19.45050734 334.96044024 -19.6489339 341.26460668 -19.65612793 349.06736755 C-19.6358399 351.38117448 -19.61498914 353.69497653 -19.59362793 356.0087738 C-19.57103909 359.63821036 -19.55455773 363.26745378 -19.54870605 366.8969574 C-19.53915959 370.41244474 -19.5053583 373.92707355 -19.46862793 377.44236755 C-19.4736734 378.51969147 -19.47871887 379.59701538 -19.48391724 380.70698547 C-19.3919027 387.7909866 -18.43363493 393.5196765 -13.55325317 398.90693665 C-8.3364097 403.62619934 -2.93791211 404.629095 3.90197754 404.70652771 C4.55634293 404.71657333 5.21070831 404.72661896 5.88490295 404.73696899 C8.02746782 404.76762667 10.16990877 404.78478688 12.31262207 404.80174255 C13.80621392 404.82046829 15.29979535 404.84004274 16.79336548 404.86042786 C20.70920651 404.91160683 24.62508178 404.95130833 28.54107666 404.98857117 C32.5431353 405.02870046 36.54505323 405.07975194 40.54699707 405.12986755 C48.38804654 405.22645812 56.22916604 405.3109164 64.07043457 405.38768005 C64.06929541 404.70454656 64.06815625 404.02141306 64.06698257 403.31757855 C63.9998147 362.80880684 63.94835789 322.30004232 63.91723858 281.79122616 C63.91348657 276.92477711 63.90960359 272.05832816 63.90563965 267.19187927 C63.90485272 266.2230772 63.90406579 265.25427512 63.90325501 264.25611541 C63.8902093 248.57964471 63.86656006 232.90320709 63.83897618 217.22675601 C63.81089874 201.13532354 63.79425336 185.04390838 63.78816909 168.95245242 C63.7840575 159.0271473 63.77108211 149.1019357 63.74668517 139.17665938 C63.73079911 132.36593406 63.7260407 125.55525693 63.72993044 118.74451444 C63.73184752 114.81799706 63.72895657 110.89164284 63.71281815 106.96515465 C63.69812372 103.36351753 63.69754337 99.76215193 63.70773789 96.16050181 C63.7095879 94.25462389 63.69673496 92.34874875 63.68319064 90.44291806 C63.75861765 75.84536191 67.44260086 64.5184372 77.25793457 53.57518005 C80.31381226 50.72933625 83.56280755 49.00935366 87.30871582 47.1884613 C88.92773804 46.39629211 88.92773804 46.39629211 90.57946777 45.58811951 C91.40148682 45.19197449 92.22350586 44.79582947 93.07043457 44.38768005 C80.70909027 44.29484327 68.34782944 44.22384546 55.98620701 44.18043137 C50.24568394 44.15959073 44.50540007 44.13133717 38.76501465 44.08592224 C33.22125344 44.04233928 27.67772177 44.01851645 22.13380241 44.00817108 C20.02276943 44.00080208 17.91174847 43.98641221 15.80081367 43.96475983 C12.83515778 43.93556067 9.87044047 43.93173098 6.90466309 43.93357849 C6.03934967 43.91919739 5.17403625 43.90481628 4.28250122 43.88999939 C-2.27179914 43.93394342 -8.49093451 45.34186279 -13.52371883 49.79972458 C-18.00412618 54.887512 -19.16905188 59.44121017 -19.20300293 66.0868988 C-19.22362793 67.37918396 -19.24425293 68.67146912 -19.26550293 70.00291443 C-19.28795566 72.03220218 -19.30452465 74.06115523 -19.3104248 76.09056091 C-19.39982701 94.38448726 -19.39982701 94.38448726 -25.67907715 101.3200531 C-31.51829769 106.74291036 -37.0888836 107.85414309 -44.92175293 107.70018005 C-50.8970927 107.07936553 -54.50550444 104.78009525 -58.74206543 100.63768005 C-64.48859516 92.09997874 -64.456884 83.84003277 -64.36706543 73.88768005 C-64.36369171 73.17114258 -64.36031799 72.4546051 -64.35684204 71.71635437 C-64.21522699 51.03128933 -59.6573597 33.0340465 -44.61706543 17.94236755 C-32.18273321 6.12252269 -17.1628982 -0.10827701 0 0 Z " fill="#000000" transform="translate(233.9295654296875,-0.3876800537109375)"/>
<path d="M0 0 C10.64742284 8.82994745 20.25939527 19.0443483 30.05859375 28.78515625 C31.32353511 30.04211209 31.32353511 30.04211209 32.61403084 31.32446098 C37.06446052 35.74837049 41.51135029 40.17580678 45.95581055 44.60571289 C49.61589249 48.25239721 53.28313363 51.89164698 56.95678711 55.5246582 C61.42326028 59.94175475 65.87727734 64.37105591 70.32267952 68.80935478 C72.00844701 70.48843271 73.6984479 72.16327211 75.39285088 73.83363533 C77.76142323 76.17046414 80.11360326 78.52271277 82.46264648 80.87915039 C83.15517517 81.55527374 83.84770386 82.23139709 84.56121826 82.92800903 C89.93581674 88.37183335 94.08808293 94.50271953 95.62890625 102.1015625 C95.59603516 103.35066406 95.59603516 103.35066406 95.5625 104.625 C95.56378906 105.46289062 95.56507813 106.30078125 95.56640625 107.1640625 C93.84581648 115.77887749 88.4104913 121.16252041 82.37939453 127.12231445 C81.51062683 127.99648514 80.64185913 128.87065582 79.74676514 129.77131653 C77.37795728 132.15044047 75.00060666 134.52031722 72.61839533 136.88597512 C70.11915073 139.37129555 67.63014896 141.86683917 65.13961792 144.36088562 C60.95861634 148.54458277 56.76963135 152.72015246 52.57568359 156.89086914 C47.73454763 161.70537341 42.90599048 166.53221618 38.0840255 171.3659156 C33.43295501 176.02778147 28.77342167 180.68109801 24.10988998 185.33049583 C22.13045179 187.30419212 20.15394166 189.2807528 18.17975235 191.25969887 C15.42165912 194.02346985 12.65121282 196.77464925 9.87939453 199.5246582 C9.0656839 200.34287048 8.25197327 201.16108276 7.41360474 202.00408936 C1.42720592 207.91244438 -3.17156642 211.42246384 -11.875 211.5 C-19.28458904 211.32822871 -23.26710193 209.57935985 -28.51953125 204.54296875 C-33.30746071 199.31350112 -34.25266887 193.96792475 -34.22705078 187.07666016 C-34.22734283 186.4125412 -34.22763489 185.74842224 -34.22793579 185.06417847 C-34.22655261 182.88900263 -34.21103988 180.71417782 -34.1953125 178.5390625 C-34.19157876 177.02306302 -34.18873349 175.50706111 -34.18673706 173.99105835 C-34.17912902 170.01590218 -34.1595051 166.04089394 -34.1373291 162.0657959 C-34.11680948 158.0035197 -34.1077223 153.94121942 -34.09765625 149.87890625 C-34.07625631 141.91920322 -34.04215485 133.95962005 -34 126 C-35.10532074 126.01110306 -36.21064148 126.02220612 -37.34945679 126.03364563 C-47.79471277 126.1352518 -58.23986774 126.21007565 -68.68550682 126.25906086 C-74.05503401 126.28509191 -79.42416044 126.32037119 -84.79345703 126.37719727 C-89.98062676 126.43174872 -95.16741238 126.46146931 -100.35484695 126.47438622 C-102.32831489 126.48358466 -104.30176313 126.5015469 -106.27506638 126.52865028 C-126.86400053 126.80004881 -126.86400053 126.80004881 -134 121 C-139.85762324 114.73095425 -140.40746948 108.80720347 -140.34765625 100.52734375 C-139.72722027 94.23235852 -136.95227506 90.80942567 -132.4375 86.625 C-131.633125 86.08875 -130.82875 85.5525 -130 85 C-129.47327698 84.6411673 -128.94655396 84.28233459 -128.40386963 83.91262817 C-124.70965144 82.51011967 -120.99772527 82.73982117 -117.10058594 82.77294922 C-116.20267334 82.77265717 -115.30476074 82.77236511 -114.37963867 82.77206421 C-111.41445217 82.77345652 -108.44951756 82.7890132 -105.484375 82.8046875 C-103.4274306 82.80841798 -101.37048441 82.81126479 -99.3135376 82.81326294 C-93.90152067 82.82089665 -88.48961121 82.84054296 -83.07763672 82.8626709 C-77.55437677 82.88313492 -72.03109944 82.89226585 -66.5078125 82.90234375 C-55.6718278 82.92378904 -44.83592284 82.9579219 -34 83 C-34.00999275 81.74878357 -34.00999275 81.74878357 -34.02018738 80.47229004 C-34.08045626 72.58696007 -34.12605432 64.70170817 -34.15543652 56.81620026 C-34.17105035 52.76278303 -34.19220961 48.70955714 -34.22631836 44.65625 C-34.25906561 40.73994584 -34.27688518 36.82382499 -34.28463173 32.90739441 C-34.29014781 31.41795468 -34.30091907 29.92852427 -34.31719017 28.43916321 C-34.49834517 11.16019425 -34.49834517 11.16019425 -28.6875 4.25 C-20.06814858 -2.96620119 -10.38420827 -6.22479357 0 0 Z " fill="#000000" transform="translate(140,109)"/>
</svg>
