<?xml version="1.0" encoding="UTF-8"?>
<svg version="1.1" xmlns="http://www.w3.org/2000/svg" width="723" height="167">
<path d="M0 0 C1.42880381 -0.00433024 2.85760237 -0.01084737 4.28638738 -0.01936007 C8.2083467 -0.03635381 12.12966768 -0.02216928 16.05159342 -0.00284529 C20.28273207 0.01257738 24.51379227 -0.00081898 28.74493408 -0.0105896 C37.03173301 -0.02512071 45.31828705 -0.01287783 53.60506279 0.00852364 C63.25259428 0.03252569 72.90006956 0.03081978 82.54762428 0.02821773 C99.75904956 0.02452699 116.97035939 0.04535857 134.18174744 0.07946777 C150.88848285 0.11256464 167.59509709 0.12672526 184.30186462 0.1204834 C202.48952835 0.11372169 220.67714131 0.11617299 238.86479753 0.1358428 C239.82624319 0.13688229 240.78768884 0.13792177 241.77826921 0.13899276 C243.70935395 0.14108367 245.64043866 0.14319465 247.57152336 0.14532593 C254.29887734 0.15222555 261.02621569 0.15289018 267.75357246 0.15144348 C275.94940573 0.15000483 284.1451401 0.15967551 292.34094054 0.18338984 C296.52381768 0.19526198 300.70655687 0.20236692 304.88945007 0.19655228 C308.71687756 0.1913889 312.54401334 0.2000385 316.37139087 0.21982688 C317.75755514 0.22457524 319.14374773 0.2242557 320.52990783 0.21841651 C322.41144698 0.21125511 324.29303077 0.22428476 326.17453098 0.23834991 C327.22044582 0.23992112 328.26636066 0.24149232 329.34396988 0.24311113 C334.25806038 0.89947178 338.1536402 3.713477 341.19818115 7.61108208 C343.40913269 12.15387583 342.84623748 17.40018355 342.79185486 22.3404541 C342.79740387 23.62077011 342.80295288 24.90108612 342.80867004 26.22019958 C342.82288161 29.72035656 342.80589418 33.21972451 342.78238487 36.71980596 C342.7622336 40.38765832 342.76815757 44.05547929 342.77049255 47.72337341 C342.77043903 53.8810218 342.75071234 60.0383628 342.71861267 66.19592285 C342.68170561 73.3101532 342.67293988 80.42398127 342.67991018 87.53829485 C342.68621951 94.38981169 342.67545404 101.24119092 342.65594482 108.09267998 C342.64778027 111.00525311 342.64505952 113.91775582 342.64663696 116.83033943 C342.64768065 120.89771896 342.62348516 124.96457002 342.59654236 129.03186035 C342.59947296 130.23875519 342.60240356 131.44565002 342.60542297 132.68911743 C342.58839828 134.35242348 342.58839828 134.35242348 342.57102966 136.04933167 C342.56730095 137.01034318 342.56357224 137.97135469 342.55973053 138.96148777 C341.86121281 143.81136768 339.11278657 147.63368928 335.25262558 150.64266682 C330.36338373 152.94784247 324.65040917 152.29467804 319.35324097 152.24291992 C317.92443716 152.24725016 316.49563859 152.25376729 315.06685358 152.26227999 C311.14489427 152.27927374 307.22357328 152.2650892 303.30164754 152.24576521 C299.0705089 152.23034254 294.83944869 152.2437389 290.60830688 152.25350952 C282.32150796 152.26804063 274.03495391 152.25579775 265.74817818 152.23439628 C256.10064669 152.21039423 246.4531714 152.21210014 236.80561668 152.21470219 C219.5941914 152.21839293 202.38288157 152.19756135 185.17149353 152.16345215 C168.46475812 152.13035528 151.75814388 152.11619466 135.05137634 152.12243652 C116.86371262 152.12919823 98.67609966 152.12674693 80.48844343 152.10707712 C79.52699778 152.10603764 78.56555213 152.10499815 77.57497175 152.10392717 C75.64388702 152.10183625 73.7128023 152.09972528 71.78171761 152.09759399 C65.05436363 152.09069438 58.32702528 152.09002974 51.5996685 152.09147644 C43.40383524 152.09291509 35.20810086 152.08324441 27.01230042 152.05953008 C22.82942329 152.04765794 18.6466841 152.040553 14.46379089 152.04636765 C10.63636341 152.05153102 6.80922763 152.04288142 2.9818501 152.02309304 C1.59568583 152.01834468 0.20949324 152.01866422 -1.17666686 152.02450341 C-3.05820602 152.03166481 -4.9397898 152.01863516 -6.82129002 152.00457001 C-7.86720485 152.00299881 -8.91311969 152.0014276 -9.99072891 151.99980879 C-14.90481941 151.34344814 -18.80039923 148.52944292 -21.84494019 144.63183784 C-24.05589173 140.08904409 -23.49299651 134.84273637 -23.43861389 129.90246582 C-23.4441629 128.62214981 -23.44971191 127.3418338 -23.45542908 126.02272034 C-23.46964065 122.52256336 -23.45265322 119.02319541 -23.42914391 115.52311397 C-23.40899264 111.8552616 -23.4149166 108.18744063 -23.41725159 104.51954651 C-23.41719807 98.36189812 -23.39747137 92.20455712 -23.3653717 86.04699707 C-23.32846465 78.93276673 -23.31969891 71.81893866 -23.32666922 64.70462507 C-23.33297854 57.85310823 -23.32221308 51.001729 -23.30270386 44.15023994 C-23.2945393 41.23766681 -23.29181855 38.3251641 -23.293396 35.41258049 C-23.29443968 31.34520096 -23.2702442 27.2783499 -23.24330139 23.21105957 C-23.24623199 22.00416473 -23.2491626 20.7972699 -23.25218201 19.55380249 C-23.24083221 18.44493179 -23.22948242 17.3360611 -23.2177887 16.19358826 C-23.21405998 15.23257674 -23.21033127 14.27156523 -23.20648956 13.28143215 C-22.50797184 8.43155224 -19.7595456 4.60923065 -15.89938462 1.60025311 C-11.01014276 -0.70492254 -5.2971682 -0.05175812 0 0 Z " fill="#0A66C2" transform="translate(380.82337951660156,15.3785400390625)"/>
<path d="M0 0 C50.44309927 0 50.44309927 0 61 10 C61.54140625 10.50144531 62.0828125 11.00289062 62.640625 11.51953125 C68.92629029 18.04328992 72.24960892 26.50168399 72.5625 35.5 C72.07703661 46.18019463 68.64465594 55.4155382 61 63 C51.34103199 70.92174355 42.71696977 72.44929221 30.5 72.1875 C28.69402344 72.16719727 28.69402344 72.16719727 26.8515625 72.14648438 C23.90084675 72.11135681 20.95036345 72.05755767 18 72 C18 77.94 18 83.88 18 90 C12.06 90 6.12 90 0 90 C0 60.3 0 30.6 0 0 Z " fill="#FBFCFE" transform="translate(383,36)"/>
<path d="M0 0 C5.61 0 11.22 0 17 0 C17.00410889 1.20011719 17.00821777 2.40023437 17.01245117 3.63671875 C17.03433153 8.11745315 17.08871296 12.59732049 17.15258789 17.07763672 C17.17569051 19.01147103 17.19014534 20.94542979 17.19555664 22.87939453 C17.20490306 25.67037817 17.24601618 28.45942541 17.29296875 31.25 C17.2890361 32.10553467 17.28510345 32.96106934 17.28105164 33.8425293 C17.42554647 39.87627201 18.88325894 44.45092525 23 49 C27.79402863 50.59800954 32.15242551 50.73902979 36.8125 48.875 C40.02078328 46.1250429 41.70201513 43.11737157 42.2984314 38.87945557 C42.44142478 36.39810164 42.49337682 33.93070939 42.51171875 31.4453125 C42.52966995 30.54376434 42.54762115 29.64221619 42.56611633 28.71334839 C42.6200415 25.85061232 42.65405775 22.98804129 42.6875 20.125 C42.7206888 18.17706046 42.7551799 16.22914264 42.79101562 14.28125 C42.87575772 9.52095274 42.94265359 4.76070292 43 0 C48.61 0 54.22 0 60 0 C60.11355391 8.39809773 60.20503041 16.79558552 60.25906086 25.1942482 C60.28500997 29.09528678 60.32013316 32.99576702 60.37719727 36.89648438 C60.43204966 40.67019787 60.46153056 44.44337885 60.47438622 48.21746063 C60.48353187 49.64782836 60.50138783 51.07817127 60.52865028 52.50830841 C60.72408899 63.19862343 59.23565985 72.15980832 52.82421875 81 C48.20389594 85.32468972 43.95214301 88.75554607 38 91 C36.96875 91.4125 35.9375 91.825 34.875 92.25 C28.89971948 93.40650591 23.07962546 93.11580239 17 93 C17 87.06 17 81.12 17 75 C24.125 74.75 24.125 74.75 26.33251953 74.70214844 C31.28436014 74.44696815 34.17602714 73.08682147 38 70 C39.38868516 67.89960669 39.38868516 67.89960669 40 66 C39.30261719 66.32097656 38.60523438 66.64195313 37.88671875 66.97265625 C31.06401136 69.40076456 23.27990379 69.02193823 16.6875 66.0625 C8.86269916 61.52029853 3.7280548 55.18210393 0.78076172 46.66992188 C-1.01834635 38.21332633 -0.39908885 29.41394234 -0.25 20.8125 C-0.22990364 18.79103333 -0.21165842 16.76954736 -0.1953125 14.74804688 C-0.15156707 9.8315489 -0.08271258 4.91599049 0 0 Z " fill="#FAFCFD" transform="translate(640,59)"/>
<path d="M0 0 C5.94 0 11.88 0 18 0 C18.33 18.81 18.66 37.62 19 57 C26.21163091 47.82544978 26.21163091 47.82544978 33.41015625 38.640625 C33.86197266 38.063125 34.31378906 37.485625 34.77929688 36.890625 C35.670857 35.75073078 36.56140976 34.61004824 37.45117188 33.46875 C39.2227302 31.20696544 40.96631357 29.03368643 43 27 C45.06298828 26.77294922 45.06298828 26.77294922 47.5703125 26.8046875 C48.46621094 26.81113281 49.36210937 26.81757812 50.28515625 26.82421875 C51.69087891 26.84935547 51.69087891 26.84935547 53.125 26.875 C54.06988281 26.88402344 55.01476562 26.89304687 55.98828125 26.90234375 C58.32577292 26.92595478 60.66276123 26.95888484 63 27 C61.11458587 30.98835528 58.55913984 34.26111753 55.8125 37.6875 C55.32362305 38.3067334 54.83474609 38.9259668 54.33105469 39.56396484 C52.14590103 42.32957242 49.94133972 45.07033298 47.68359375 47.77734375 C46.72646484 48.93943359 46.72646484 48.93943359 45.75 50.125 C45.18796875 50.78757813 44.6259375 51.45015625 44.046875 52.1328125 C42.79581309 53.91476558 42.79581309 53.91476558 43.27978516 55.81787109 C44.10606996 58.32137399 45.20665814 60.47003311 46.4765625 62.78125 C46.97961914 63.70067383 47.48267578 64.62009766 48.00097656 65.56738281 C48.5369043 66.53514648 49.07283203 67.50291016 49.625 68.5 C50.43662598 69.97871582 50.43662598 69.97871582 51.26464844 71.48730469 C54.69410742 77.71280793 58.20261303 83.87668623 61.890625 89.953125 C63 92 63 92 63 94 C59.77206203 94.23329086 56.54628768 94.37467674 53.3125 94.5 C52.40048828 94.56703125 51.48847656 94.6340625 50.54882812 94.703125 C47.8315094 94.78217427 45.62225835 94.72851474 43 94 C40.5911922 91.67491007 39.38016296 89.01797391 38 86 C37.26627288 84.71162817 36.52060255 83.42996615 35.76171875 82.15625 C35.06861686 80.93846351 34.37719198 79.71972092 33.6875 78.5 C33.32849609 77.86835937 32.96949219 77.23671875 32.59960938 76.5859375 C31.73155127 75.05815524 30.86554772 73.52920589 30 72 C27.14776747 74.7451951 24.65538637 77.55838907 22.3125 80.75 C21.71050781 81.54921875 21.10851562 82.3484375 20.48828125 83.171875 C18.4403052 86.66058501 18.4403052 86.66058501 18 94 C12.06 94 6.12 94 0 94 C0 62.98 0 31.96 0 0 Z " fill="#0965C1" transform="translate(180,32)"/>
<path d="M0 0 C6.40806672 4.55936783 10.23408803 10.83934158 12.25 18.375 C12.51638207 21.85395775 12.4830726 25.31731199 12.4453125 28.8046875 C12.4424826 29.79501984 12.43965271 30.78535217 12.43673706 31.80569458 C12.4255847 34.95392176 12.40048907 38.10185949 12.375 41.25 C12.36496382 43.39062088 12.35583908 45.53124624 12.34765625 47.671875 C12.32566153 52.90636072 12.29116563 58.14063136 12.25 63.375 C6.31 63.375 0.37 63.375 -5.75 63.375 C-5.77578125 60.41273437 -5.8015625 57.45046875 -5.828125 54.3984375 C-5.86657412 51.51894767 -5.91172514 48.63963518 -5.95751953 45.76025391 C-5.98568703 43.76424675 -6.00692252 41.76812894 -6.02099609 39.77197266 C-6.04248403 36.89688636 -6.08916426 34.02312471 -6.140625 31.1484375 C-6.14185364 30.26070648 -6.14308228 29.37297546 -6.14434814 28.45834351 C-6.27320311 22.96647627 -7.06168545 19.71565206 -10.75 15.375 C-13.84985526 13.44806294 -15.58174654 13.36899095 -19.25 13.5 C-23.13661446 14.47165361 -24.97074092 15.51633352 -27.75 18.375 C-30.22533699 22.97259843 -30.09478552 27.52063799 -30.1640625 32.61328125 C-30.18342865 33.49404831 -30.2027948 34.37481537 -30.2227478 35.28227234 C-30.28232851 38.08391766 -30.32884265 40.88560456 -30.375 43.6875 C-30.41319959 45.59181438 -30.45225247 47.49611185 -30.4921875 49.40039062 C-30.58961209 54.05850367 -30.66935077 58.71644564 -30.75 63.375 C-36.69 63.375 -42.63 63.375 -48.75 63.375 C-48.75 41.265 -48.75 19.155 -48.75 -3.625 C-42.75 -3.625 -42.75 -3.625 -39.875 -1.125 C-39.17375 -0.3 -38.4725 0.525 -37.75 1.375 C-37.2653125 1.03726563 -36.780625 0.69953125 -36.28125 0.3515625 C-24.5230579 -7.47215763 -12.07230121 -7.31654619 0 0 Z " fill="#0965C1" transform="translate(156.75,62.625)"/>
<path d="M0 0 C5.69029512 5.65366232 9.87980709 12.49581537 10.04736328 20.59887695 C10.04704819 22.51907209 10.03584175 24.43928627 10.015625 26.359375 C10.0127951 27.37331833 10.00996521 28.38726166 10.00704956 29.43193054 C9.99587875 32.66177302 9.97077961 35.89133546 9.9453125 39.12109375 C9.9352787 41.31444911 9.92615355 43.50780883 9.91796875 45.70117188 C9.89594951 51.07041995 9.86144075 56.43945941 9.8203125 61.80859375 C3.8803125 61.80859375 -2.0596875 61.80859375 -8.1796875 61.80859375 C-8.1890332 60.53218018 -8.19837891 59.2557666 -8.20800781 57.94067383 C-8.24793089 53.19731973 -8.31369653 48.45461263 -8.38720703 43.71166992 C-8.41540314 41.66032229 -8.43662443 39.60886628 -8.45068359 37.55737305 C-8.47213174 34.60539321 -8.51879198 31.65471445 -8.5703125 28.703125 C-8.57154114 27.78835892 -8.57276978 26.87359283 -8.57403564 25.93110657 C-8.6703478 21.72807478 -8.80329328 19.40812769 -11.08105469 15.7800293 C-13.54323921 13.46707675 -14.84743576 12.4750441 -18.1796875 11.80859375 C-22.6172273 12.12669696 -25.94942084 12.66893312 -29.27807617 15.75244141 C-31.96230872 20.06637426 -31.78236167 23.71411156 -31.7890625 28.703125 C-31.80559875 29.65048019 -31.82213501 30.59783539 -31.83917236 31.57389832 C-31.88762641 34.58969625 -31.90901773 37.60499001 -31.9296875 40.62109375 C-31.95784932 42.6699472 -31.98777705 44.7187772 -32.01953125 46.76757812 C-32.09338487 51.78120849 -32.14297551 56.7945594 -32.1796875 61.80859375 C-38.1196875 61.80859375 -44.0596875 61.80859375 -50.1796875 61.80859375 C-50.1796875 39.69859375 -50.1796875 17.58859375 -50.1796875 -5.19140625 C-48.5296875 -5.19140625 -46.8796875 -5.19140625 -45.1796875 -5.19140625 C-43.84635417 -3.85807292 -42.51302083 -2.52473958 -41.1796875 -1.19140625 C-38.2166385 -1.59265247 -35.85309796 -2.78513368 -33.2421875 -4.19140625 C-22.21967171 -9.79401096 -9.50628024 -7.71663639 0 0 Z " fill="#0965C1" transform="translate(330.1796875,64.19140625)"/>
<path d="M0 0 C5.61 0 11.22 0 17 0 C17.00410889 1.27117676 17.00821777 2.54235352 17.01245117 3.85205078 C17.03427433 8.58243991 17.08859746 13.31200102 17.15258789 18.04199219 C17.17574007 20.08650762 17.19015706 22.13114186 17.19555664 24.17578125 C17.20486644 27.12054231 17.24590158 30.06344209 17.29296875 33.0078125 C17.2890361 33.9174173 17.28510345 34.82702209 17.28105164 35.76419067 C17.38076026 40.13179156 17.61488309 43.09458612 20.41918945 46.56201172 C24.01790337 49.96157251 26.004772 50.29069171 30.96875 50.21875 C34.9127709 49.79400929 37.20911813 47.90386499 39.75 45 C41.62836119 41.9946221 42.12875015 39.45517195 42.20532227 35.98754883 C42.22526749 35.18694534 42.24521271 34.38634186 42.26576233 33.56147766 C42.28247482 32.70201035 42.29918732 31.84254303 42.31640625 30.95703125 C42.33718735 30.0734343 42.35796844 29.18983734 42.37937927 28.27946472 C42.44475754 25.45722215 42.50370528 22.63488665 42.5625 19.8125 C42.60569637 17.89907894 42.64931102 15.98566727 42.69335938 14.07226562 C42.80042695 9.38160563 42.90172752 4.69085217 43 0 C48.61 0 54.22 0 60 0 C60 22.11 60 44.22 60 67 C58.35 67 56.7 67 55 67 C52.6875 64 52.6875 64 51 61 C46.98966393 61.61697478 44.31577651 63.76692602 41 66 C34.02012108 69.35846914 25.92311949 69.27740044 18.62890625 66.90234375 C9.24150595 62.50749342 4.53547097 57.3138687 0.82922363 47.76519775 C-0.53237486 43.22469875 -0.4948031 38.8862509 -0.390625 34.1796875 C-0.38496521 33.19501495 -0.37930542 32.21034241 -0.37347412 31.1958313 C-0.35130111 28.08836713 -0.30114185 24.98210843 -0.25 21.875 C-0.22991031 19.75262096 -0.2116639 17.63022363 -0.1953125 15.5078125 C-0.15149907 10.33808582 -0.08260627 5.16924641 0 0 Z " fill="#FAFCFD" transform="translate(463,59)"/>
<path d="M0 0 C6.27 0 12.54 0 19 0 C19 23.76 19 47.52 19 72 C33.52 72 48.04 72 63 72 C63 77.94 63 83.88 63 90 C42.21 90 21.42 90 0 90 C0 60.3 0 30.6 0 0 Z " fill="#0A65C1" transform="translate(8,36)"/>
<path d="M0 0 C5 1 5 1 7.3125 4.0625 C7.869375 5.031875 8.42625 6.00125 9 7 C9.58007812 6.66226563 10.16015625 6.32453125 10.7578125 5.9765625 C11.53898438 5.53054687 12.32015625 5.08453125 13.125 4.625 C13.89070312 4.18414062 14.65640625 3.74328125 15.4453125 3.2890625 C22.03968473 -0.03837303 27.62064367 -0.25278676 34.875 -0.125 C35.84953125 -0.11597656 36.8240625 -0.10695312 37.828125 -0.09765625 C40.21885672 -0.0742177 42.60946099 -0.03835089 45 0 C45 5.61 45 11.22 45 17 C43.69804688 17.02578125 42.39609375 17.0515625 41.0546875 17.078125 C39.32809244 17.13442701 37.60153124 17.19177387 35.875 17.25 C35.0190625 17.26417969 34.163125 17.27835938 33.28125 17.29296875 C27.74417516 17.50593317 24.36486559 18.27422688 20 22 C17.96181189 25.05728217 17.74340713 25.74090401 17.68115234 29.19604492 C17.66128265 30.03668991 17.64141296 30.8773349 17.62094116 31.74345398 C17.60361435 33.09827629 17.60361435 33.09827629 17.5859375 34.48046875 C17.56657135 35.40845779 17.5472052 36.33644684 17.5272522 37.29255676 C17.46745756 40.25744425 17.42107145 43.22237057 17.375 46.1875 C17.33682012 48.19728259 17.29776838 50.20704881 17.2578125 52.21679688 C17.16175607 57.14439842 17.07772451 62.07207658 17 67 C11.39 67 5.78 67 0 67 C0 44.89 0 22.78 0 0 Z " fill="#FBFCFE" transform="translate(589,59)"/>
<path d="M0 0 C5 1 5 1 7.3125 4.0625 C7.869375 5.031875 8.42625 6.00125 9 7 C9.58007812 6.66226563 10.16015625 6.32453125 10.7578125 5.9765625 C11.53898438 5.53054687 12.32015625 5.08453125 13.125 4.625 C13.89070312 4.18414062 14.65640625 3.74328125 15.4453125 3.2890625 C22.03968473 -0.03837303 27.62064367 -0.25278676 34.875 -0.125 C35.84953125 -0.11597656 36.8240625 -0.10695312 37.828125 -0.09765625 C40.21885672 -0.0742177 42.60946099 -0.03835089 45 0 C45 5.61 45 11.22 45 17 C43.69804688 17.02578125 42.39609375 17.0515625 41.0546875 17.078125 C39.32809244 17.13442701 37.60153124 17.19177387 35.875 17.25 C35.0190625 17.26417969 34.163125 17.27835938 33.28125 17.29296875 C27.74417516 17.50593317 24.36486559 18.27422688 20 22 C17.96181189 25.05728217 17.74340713 25.74090401 17.68115234 29.19604492 C17.66128265 30.03668991 17.64141296 30.8773349 17.62094116 31.74345398 C17.60361435 33.09827629 17.60361435 33.09827629 17.5859375 34.48046875 C17.56657135 35.40845779 17.5472052 36.33644684 17.5272522 37.29255676 C17.46745756 40.25744425 17.42107145 43.22237057 17.375 46.1875 C17.33682012 48.19728259 17.29776838 50.20704881 17.2578125 52.21679688 C17.16175607 57.14439842 17.07772451 62.07207658 17 67 C11.39 67 5.78 67 0 67 C0 44.89 0 22.78 0 0 Z " fill="#FBFCFE" transform="translate(536,59)"/>
<path d="M0 0 C5.94 0 11.88 0 18 0 C18 22.11 18 44.22 18 67 C12.06 67 6.12 67 0 67 C0 44.89 0 22.78 0 0 Z " fill="#0966C1" transform="translate(249,59)"/>
<path d="M0 0 C5.94 0 11.88 0 18 0 C18 22.11 18 44.22 18 67 C12.06 67 6.12 67 0 67 C0 44.89 0 22.78 0 0 Z " fill="#0A65C2" transform="translate(78,59)"/>
<path d="M0 0 C4.9190625 -0.12375 4.9190625 -0.12375 9.9375 -0.25 C10.95191162 -0.28641602 11.96632324 -0.32283203 13.01147461 -0.36035156 C20.42592802 -0.44956963 26.60686801 0.8911411 32.19140625 6.0078125 C35.85325378 11.66228931 37.29264444 16.28047763 36 23 C33.94646481 28.87539236 29.51971219 33.2401439 24 36 C22.18658158 36.08471364 20.37005839 36.10721083 18.5546875 36.09765625 C17.58515137 36.09515869 16.61561523 36.09266113 15.61669922 36.09008789 C14.38193848 36.08098389 13.14717773 36.07187988 11.875 36.0625 C5.996875 36.0315625 5.996875 36.0315625 0 36 C0 24.12 0 12.24 0 0 Z " fill="#0E68C3" transform="translate(401,54)"/>
<path d="M0 0 C3.05357079 1.61320721 5.23833566 3.03060902 7.375 5.75 C8.65916889 10.37300801 8.6348239 14.41294026 6.875 18.8125 C4.42845842 21.66679851 2.57063124 22.78733279 -1 24 C-5.25641192 24.20864764 -8.23118628 23.46797357 -11.875 21.25 C-15.21432323 17.714246 -16.02604882 15.43268528 -15.9375 10.5625 C-14.75482633 6.06834005 -13.26775963 4.26775963 -10 1 C-6.38069302 -0.20643566 -3.80768995 -0.32268559 0 0 Z " fill="#0A65C1" transform="translate(91,29)"/>
<path d="M0 0 C3.70390021 2.02666238 5.65363011 3.48044516 8 7 C8.7625943 11.65537221 8.39395811 15.19749274 6.3125 19.4375 C3.80111756 22.22038324 2.65117445 23.25316886 -1 24 C-5.71633534 24.15337676 -8.28051109 23.61233099 -11.9375 20.5 C-12.618125 19.675 -13.29875 18.85 -14 18 C-14.33 17.67 -14.66 17.34 -15 17 C-15.54396172 12.18460113 -15.72490311 8.24269105 -13.25 4 C-8.9036735 0.13659867 -5.8964993 -0.60998269 0 0 Z " fill="#0965C1" transform="translate(262,29)"/>
</svg>
