<?xml version="1.0" encoding="UTF-8"?>
<svg version="1.1" xmlns="http://www.w3.org/2000/svg" width="512" height="512">
<path d="M0 0 C3.05946686 0.00313071 6.11888923 -0.00304165 9.17834967 -0.00903875 C16.39602038 -0.02297689 23.61357239 -0.02160764 30.83124423 -0.01013684 C38.24616742 0.00138775 45.66073072 -0.01282811 53.07560664 -0.03953332 C59.48376195 -0.06173755 65.8918046 -0.06831867 72.2999956 -0.06245691 C76.10967462 -0.05910389 79.91912198 -0.06139366 83.72876811 -0.07870793 C87.30371457 -0.09425574 90.87812726 -0.09013611 94.45305324 -0.07140279 C96.37372192 -0.06600801 98.2944151 -0.08016296 100.21503329 -0.09509778 C108.13899638 -0.02816715 115.94167942 0.65283253 122.07148719 6.1859014 C127.48288593 12.03483677 128.59927885 17.59228004 128.4452579 25.42809558 C127.82444338 31.40343535 125.5251731 35.01184708 121.3827579 39.24840808 C113.2331108 44.73374747 106.05643691 44.86704429 96.47162509 44.8206737 C95.10076582 44.82478512 93.72991004 44.83024936 92.359061 44.83695483 C89.41967636 44.84863277 86.48047925 44.85118101 83.54107547 44.84659839 C78.88275828 44.8397536 74.2246849 44.85571797 69.56641269 44.87499499 C59.67187416 44.91276937 49.77735745 44.92562983 39.8827579 44.93590808 C29.21180955 44.94700407 18.54097487 44.96253305 7.87010384 45.00662065 C3.25034596 45.02486131 -1.36913012 45.02891082 -5.98891521 45.02168536 C-8.87723314 45.02015115 -11.76541326 45.03102472 -14.65369344 45.04506373 C-16.60746588 45.05090029 -18.56126547 45.04202421 -20.51502347 45.03251147 C-38.45766788 45.15605196 -53.60844097 51.09400432 -66.3125546 63.74840808 C-82.2170163 80.47970724 -84.32211233 98.81522216 -84.25542569 120.90465808 C-84.25949597 123.17264567 -84.26484041 125.44063127 -84.27135587 127.70861316 C-84.28498086 133.84079399 -84.27975069 139.97282264 -84.27021861 146.10500598 C-84.26259703 152.53757632 -84.26967455 158.97013407 -84.27437711 165.40270495 C-84.280176 176.89366188 -84.27088207 188.38454135 -84.2555991 199.87548614 C-84.24219768 210.27326506 -84.24452632 220.67094347 -84.25835538 231.06872058 C-84.27444578 243.1722506 -84.28036693 255.27570184 -84.27151859 267.37924457 C-84.26685348 273.77567972 -84.26618522 280.17204579 -84.27612805 286.56847644 C-84.28482558 292.58338788 -84.27872487 298.59811044 -84.26144528 304.61300159 C-84.25749532 306.81394648 -84.25858878 309.01490741 -84.26523328 311.21584582 C-84.3213261 331.69169383 -81.65591956 349.11778044 -66.98418546 364.44616199 C-53.12322918 378.36156779 -37.15343249 383.70154567 -17.80223584 383.83714581 C-14.6675741 383.84270095 -11.53314181 383.83355499 -8.3984921 383.82409167 C-6.13050451 383.82816195 -3.8625189 383.83350639 -1.59453702 383.84002185 C4.53764381 383.85364684 10.66967246 383.84841667 16.8018558 383.83888459 C23.23442615 383.83126301 29.66698389 383.83834053 36.09955478 383.84304309 C47.5905117 383.84884198 59.08139117 383.83954805 70.57233596 383.82426508 C80.97011488 383.81086366 91.36779329 383.8131923 101.7655704 383.82702136 C113.86910043 383.84311177 125.97255166 383.84903292 138.07609439 383.84018457 C144.47252954 383.83551946 150.86889561 383.8348512 157.26532626 383.84479403 C163.28023771 383.85349156 169.29496026 383.84739085 175.30985141 383.83011127 C177.51079631 383.8261613 179.71175723 383.82725476 181.91269565 383.83389926 C202.38854365 383.88999208 219.81463026 381.22458554 235.14301181 366.55285144 C248.35352492 353.39402968 254.41856486 337.66083697 254.52504611 319.04494739 C254.51732684 317.79829303 254.50960757 316.55163867 254.50165439 315.26720691 C254.50413002 313.9022187 254.5079761 312.53723242 254.51306796 311.17225146 C254.52132831 308.26131609 254.52066563 305.3505769 254.51288295 302.43964076 C254.50118209 297.82768537 254.51355832 293.21597613 254.52950168 288.60404468 C254.56549006 277.15720557 254.5719266 265.71037442 254.56940341 254.26348376 C254.5676884 245.34646605 254.57490003 236.42965303 254.60938197 227.51269239 C254.62608592 222.93661538 254.62446134 218.36104022 254.60855925 213.78496587 C254.60273038 210.93167612 254.61355795 208.07862057 254.62880588 205.22537303 C254.63425862 203.29033438 254.61999114 201.35527089 254.60494113 199.42028308 C254.66984959 191.47090763 255.32952908 183.6484729 260.88276458 177.49755073 C266.73104597 172.08542524 272.28935766 170.96939161 280.1249454 171.12340808 C286.10028517 171.7442226 289.70869691 174.04349288 293.9452579 178.18590808 C299.38962002 186.27467465 299.56713693 193.38157821 299.5209415 202.89416003 C299.52501336 204.24380931 299.53035868 205.59345526 299.53687167 206.94309497 C299.55049256 210.59262479 299.54526458 214.24189874 299.53573442 217.89143276 C299.52809341 221.73424194 299.53519727 225.57703045 299.53989291 229.41984057 C299.54534484 235.88332513 299.53818125 242.34670676 299.52387118 248.81017566 C299.50762177 256.23429597 299.51277895 263.65816806 299.5293504 271.08228213 C299.54307288 277.49120121 299.54483073 283.90004656 299.53703439 290.30897564 C299.53240656 294.12073486 299.53159386 297.93237855 299.54164386 301.7441299 C299.63237286 341.59169467 299.63237286 341.59169467 292.9452579 358.24840808 C292.64482577 359.02627673 292.34439364 359.80414538 292.03485751 360.60558581 C287.45197642 372.08577958 281.1967387 382.05266661 273.1327579 391.43590808 C272.61584384 392.09719714 272.09892978 392.7584862 271.56635165 393.43981433 C254.93415626 414.07374094 228.45792388 424.97156602 202.82334805 428.16609812 C194.27606007 429.02321247 185.66418792 428.84123672 177.0846622 428.80822253 C174.83859217 428.81065696 172.59252324 428.81438254 170.34645724 428.81928515 C164.30545358 428.82860599 158.26461445 428.81934498 152.22362375 428.80595303 C145.87211229 428.79454774 139.52060786 428.79875282 133.16908908 428.80069995 C122.51331205 428.80157975 111.85760537 428.79063801 101.2018497 428.77208972 C90.27181705 428.75306943 79.34185865 428.74600998 68.41181064 428.75158191 C55.18221612 428.75830631 41.95266236 428.75496946 28.72306895 428.74247813 C23.6911401 428.73785375 18.65923136 428.73694885 13.62730098 428.73906398 C7.69850315 428.74095715 1.76979955 428.73276432 -4.15897679 428.71700358 C-6.32522306 428.71278702 -8.49147893 428.71189231 -10.65772748 428.71469378 C-24.79523954 428.73019446 -38.58651903 428.44457004 -52.2422421 424.31090808 C-52.94574796 424.09917956 -53.64925382 423.88745105 -54.37407804 423.66930652 C-82.09529912 414.87422031 -104.4330142 395.15471311 -117.86333585 369.56090808 C-127.89847788 349.4429058 -129.32409462 328.6147175 -129.25542569 306.46715808 C-129.25950175 304.22919976 -129.26484938 301.99124346 -129.27135587 299.75329089 C-129.2849123 293.73261997 -129.27977951 287.71210505 -129.27021861 281.69143176 C-129.26256098 275.35560225 -129.26968442 269.01978506 -129.27437711 262.68395495 C-129.2801643 251.37025599 -129.27090995 240.05663538 -129.2555991 228.74295211 C-129.24219951 218.52598604 -129.24452872 208.3091223 -129.25835538 198.09215808 C-129.27448137 186.17090057 -129.28034818 174.24970498 -129.27151859 162.3284328 C-129.26686972 156.03863074 -129.26613978 149.74889884 -129.27612805 143.45910144 C-129.28486929 137.54256776 -129.27864661 131.62622509 -129.26144528 125.70971179 C-129.25751834 123.55362776 -129.25854832 121.39752732 -129.26523328 119.24145007 C-129.31124096 102.87946166 -128.86154608 86.02145912 -122.6797421 70.62340808 C-122.37930997 69.84553943 -122.07887784 69.06767077 -121.76934171 68.26623034 C-117.18646062 56.78603658 -110.9312229 46.81914954 -102.8672421 37.43590808 C-102.35032804 36.77461902 -101.83341397 36.11332995 -101.30083585 35.43200183 C-84.91478704 15.10344504 -58.31612434 3.68231768 -32.94483685 0.70856357 C-22.01215696 -0.26000293 -10.96879215 -0.0173764 0 0 Z " fill="#000000" transform="translate(170.86724209785461,41.56409192085266)"/>
<path d="M0 0 C1.7634375 -0.01160156 1.7634375 -0.01160156 3.5625 -0.0234375 C16.11412912 1.43141042 25.85361533 15.06686549 34.3359375 23.54296875 C35.38816561 24.59197275 36.440464 25.64090626 37.49282837 26.68977356 C39.67780585 28.86882014 41.86076549 31.04986492 44.04248047 33.23217773 C46.82794224 36.0177418 49.62026651 38.79631784 52.41432762 41.57325268 C54.58140271 43.72918561 56.74389367 45.88967226 58.90513992 48.05144691 C59.93290268 49.07803662 60.96227116 50.10302157 61.99332809 51.12630272 C63.4331057 52.55621783 64.86586048 53.99319355 66.29833984 55.43041992 C67.11201019 56.24266525 67.92568054 57.05491058 68.76400757 57.89176941 C73.91245344 63.60948925 76.4476129 68.74515322 77 76.375 C76.15870813 87.29426741 69.07663887 93.60203999 61.70849609 100.98876953 C60.75824451 101.94829148 59.80838516 102.90820201 58.85888672 103.86846924 C56.28920758 106.46426119 53.7129969 109.05346976 51.13468885 111.64068842 C49.52090853 113.26035069 47.90830079 114.88117169 46.29603958 116.50234604 C41.24211181 121.5835849 36.18422132 126.660829 31.12049043 131.73229897 C25.29193609 137.56981274 19.47668818 143.42016405 13.67269456 149.28209603 C9.1735892 153.82453485 4.66292241 158.35528077 0.14343321 162.87743843 C-2.55028551 165.57324563 -5.23900157 168.27361355 -7.91576004 170.9862709 C-10.43559372 173.53924133 -12.96958451 176.07728456 -15.51475525 178.6049881 C-16.88025264 179.96822899 -18.23096062 181.34623476 -19.58102417 182.72476196 C-24.97186159 188.0434781 -29.72867368 191.22541738 -37 193.375 C-37.66346876 193.5795965 -38.32693752 193.784193 -39.0105114 193.9949894 C-40.86718369 194.535026 -42.74276331 195.0086084 -44.61767578 195.48144531 C-45.30854279 195.65759369 -45.99940979 195.83374207 -46.71121216 196.01522827 C-48.95418234 196.58498687 -51.19953527 197.14454234 -53.4453125 197.703125 C-55.02619853 198.100632 -56.60699738 198.49848585 -58.18771362 198.89666748 C-61.48286774 199.72489758 -64.77928641 200.54784083 -68.07666016 201.3671875 C-72.28674156 202.4139469 -76.49289209 203.47564389 -80.6981678 204.54152298 C-83.95486499 205.36489615 -87.21372189 206.17944299 -90.47326279 206.99147797 C-92.02481501 207.37928974 -93.57564765 207.76999309 -95.12570572 208.16373444 C-97.29535549 208.71364019 -99.46770064 209.25132166 -101.64111328 209.78613281 C-102.87225861 210.09383606 -104.10340393 210.40153931 -105.37185669 210.71856689 C-112.40008947 211.99017175 -118.63183885 211.79874255 -125 208.375 C-129.51595159 204.57749525 -134.28342706 199.46586997 -135 193.375 C-135.18130111 187.84854096 -134.69817224 182.9895164 -133.33520508 177.6171875 C-133.1579187 176.88759827 -132.98063232 176.15800903 -132.79797363 175.40631104 C-132.21478286 173.01838739 -131.61788469 170.63416582 -131.01953125 168.25 C-130.60511426 166.57676176 -130.19111466 164.90342009 -129.7775116 163.22998047 C-128.91039799 159.73176865 -128.03606792 156.23545603 -127.15698242 152.74023438 C-126.03590315 148.27909101 -124.93630998 143.8129669 -123.84253407 139.34506226 C-122.99363282 135.89030061 -122.1315993 132.43891505 -121.26584435 128.98834229 C-120.85520523 127.34374363 -120.44896639 125.69803934 -120.04737282 124.0512085 C-119.48237952 121.74143848 -118.89932632 119.43693076 -118.31176758 117.1328125 C-118.0722361 116.12882416 -118.0722361 116.12882416 -117.8278656 115.10455322 C-115.22401374 105.12728862 -108.68866405 98.62658869 -101.53149414 91.51831055 C-100.57436666 90.55711021 -99.61787686 89.59527455 -98.66197205 88.63285828 C-96.08212618 86.03942161 -93.49298507 83.45546112 -90.90156865 80.87359214 C-88.18258727 78.16224587 -85.47097798 75.44354222 -82.75816345 72.72602844 C-78.2049126 68.16733307 -73.64540296 63.61496965 -69.08227539 59.06616211 C-63.81371898 53.81394928 -58.55608314 48.55099017 -53.30395037 43.28235787 C-48.78362932 38.74840814 -44.25746994 34.22034909 -39.7264089 29.69713241 C-37.02474146 27.00013135 -34.3251166 24.30116957 -31.63075447 21.59686852 C-29.0987597 19.05618554 -26.55949578 16.52299594 -24.01452065 13.99531746 C-22.64142984 12.62806128 -21.27568079 11.2534443 -19.91018677 9.87860107 C-13.65596716 3.68846432 -9.12586904 -0.06003861 0 0 Z " fill="#000000" transform="translate(305,130.625)"/>
<path d="M0 0 C13.55427597 10.99342529 22.48460328 25.21652014 24.43701172 42.81494141 C25.93209143 60.15786609 20.58325812 75.72543346 9.71533203 89.13085938 C5.98940491 93.52036246 2.00328561 97.61714059 -2.06298828 101.68994141 C-2.86607422 102.51751953 -3.66916016 103.34509766 -4.49658203 104.19775391 C-9.9691294 109.6969101 -14.88787674 114.02017244 -22.68798828 115.34619141 C-23.63673828 115.33587891 -24.58548828 115.32556641 -25.56298828 115.31494141 C-26.98611328 115.33041016 -26.98611328 115.33041016 -28.43798828 115.34619141 C-35.55302874 114.13663453 -40.77572662 110.19888687 -45.73193359 105.16357422 C-46.29238373 104.61013336 -46.85283386 104.0566925 -47.43026733 103.48648071 C-49.26066802 101.67353304 -51.07622099 99.84652891 -52.89111328 98.01806641 C-54.16988843 96.7419898 -55.44925652 95.46650713 -56.72918701 94.19158936 C-59.40169096 91.52496331 -62.06687606 88.85128717 -64.72705078 86.17236328 C-68.12509285 82.75153331 -71.54078 79.34897835 -74.96217728 75.95152664 C-77.60495619 73.32325165 -80.23807283 70.68546193 -82.86843109 68.04476166 C-84.12371633 66.78682184 -85.3819417 65.53180844 -86.64322662 64.27988434 C-88.40925785 62.52409422 -90.16182776 60.75584103 -91.91162109 58.98388672 C-92.42701447 58.47659027 -92.94240784 57.96929382 -93.47341919 57.44662476 C-98.57971729 52.22082368 -102.14420215 46.28661762 -102.06298828 38.81494141 C-102.07330078 37.86619141 -102.08361328 36.91744141 -102.09423828 35.93994141 C-100.55738846 26.89964834 -94.71449297 21.3646866 -88.41113281 15.1965332 C-86.94960717 13.76383115 -85.50753175 12.3135346 -84.06689453 10.85986328 C-61.83316837 -11.3294676 -26.98551572 -20.46043319 0 0 Z " fill="#000000" transform="translate(445.56298828125,53.18505859375)"/>
</svg>
