<?xml version="1.0" encoding="UTF-8"?>
<svg version="1.1" xmlns="http://www.w3.org/2000/svg" width="128" height="128">
<path d="M0 0 C1.06992188 0.474375 2.13984375 0.94875 3.2421875 1.4375 C19.75466286 9.51889971 30.60523995 22.82755446 37 40 C42.15264922 56.73710185 40.09620726 75.60983753 32.0625 90.9375 C29.74789208 95.26461729 27.3154227 99.35234288 24 103 C23.34 103 22.68 103 22 103 C21.72027344 102.16597656 21.44054687 101.33195312 21.15234375 100.47265625 C16.78970217 88.22639871 9.7466944 77.66188628 -2.01953125 71.390625 C-4.6567352 70.18543295 -7.29791859 69.05052885 -10 68 C-9.29875 67.360625 -8.5975 66.72125 -7.875 66.0625 C-1.13549561 59.30379474 3.20969773 51.5275505 3.5 41.875 C3.35243976 33.80529929 0.76826079 26.85199992 -4.93359375 21.0234375 C-6.88557762 19.47859257 -8.83207518 18.21865597 -11 17 C-12.03125 16.38125 -13.0625 15.7625 -14.125 15.125 C-20.83363994 12.60352941 -28.63108852 12.93180856 -35.36328125 15.06640625 C-42.03918497 18.11753535 -46.40784908 21.59714854 -50 28 C-50.61875 29.051875 -51.2375 30.10375 -51.875 31.1875 C-54.3770401 39.66663591 -53.82861976 47.89941884 -50.13671875 55.91796875 C-47.51786669 60.71469778 -43.83905367 64.1735956 -40 68 C-40.90621094 68.40089844 -41.81242187 68.80179687 -42.74609375 69.21484375 C-54.84686442 74.77690567 -64.08612448 82.29255876 -69.1875 94.9453125 C-70.1715168 97.61719146 -71.1101025 100.29550705 -72 103 C-72.66 103 -73.32 103 -74 103 C-87.43632312 87.65904344 -89.97119143 70.20687388 -89.19091797 50.67089844 C-88.78610347 45.00763683 -87.32690604 40.14550948 -85 35 C-84.2884375 33.39318359 -84.2884375 33.39318359 -83.5625 31.75390625 C-75.4732498 15.24483552 -62.17486912 4.39566256 -45 -2 C-31.0853272 -6.30117326 -13.31519737 -6.09524021 0 0 Z " fill="#BED3D6" transform="translate(89,4)"/>
<path d="M0 0 C9.38543972 7.2700339 13.65885911 15.89994748 16.25 27.375 C16.25 28.365 16.25 29.355 16.25 30.375 C0.37997389 43.32887044 -17.06562251 45.4634842 -36.75 44.375 C-47.81236719 43.15257212 -59.09707215 37.29734228 -67.75 30.375 C-66.3516887 19.3972128 -62.89248705 9.72105437 -54.33984375 2.27734375 C-37.39865175 -10.27261144 -17.84507886 -11.92891604 0 0 Z " fill="#BED3D6" transform="translate(89.75,83.625)"/>
<path d="M0 0 C5.9956896 4.96498405 8.58115128 11.29019708 9.4375 18.875 C9.12462091 25.49760742 6.68213999 31.8736281 1.8125 36.4375 C-4.66352472 41.27733164 -11.3019083 42.7468426 -19.2890625 41.6953125 C-25.73466054 40.04211877 -30.38373518 36.40271908 -34 30.875 C-37.35214881 25.07857602 -38.01138237 18.94804685 -36.3515625 12.46875 C-33.90816166 5.53533908 -30.55494152 1.40070064 -24.05078125 -2.02734375 C-15.57398556 -5.64122325 -7.89064835 -4.48061941 0 0 Z " fill="#BFD2D6" transform="translate(78,27)"/>
</svg>
